<svg id="Calque_1" data-name="Calque 1" xmlns="http://www.w3.org/2000/svg" viewBox="0 0 175.46 234.74"><defs><style>.cls-1{fill:#e6e6e6;}</style></defs><path d="M2.27,196.27s20.06,18.94,42.13-.64,44.61.59,44.13,15.16C87.86,231,39.05,258.78,2.27,196.27Z"/><path d="M173.39,196.27s-20.06,18.94-42.13-.64-44.62.59-44.14,15.16C87.79,231,136.61,258.78,173.39,196.27Z"/><rect x="28.02" y="145.61" width="119" height="18"/><path d="M175.46,59.39a36.6,36.6,0,0,0-52.35-33.2,36.74,36.74,0,0,0-70.38,0A36.56,36.56,0,0,0,37,22.63,37,37,0,0,0,0,59.39C0,76.78,11,91.3,28,95.14v42.47H147V95.14A36.07,36.07,0,0,0,175.46,59.39Z"/><polygon class="cls-1" points="36.02 132.84 36.02 98.61 44.2 98.61 36.02 132.84"/><path class="cls-1" d="M11.43,61.64A28.59,28.59,0,0,1,36.32,33.3,26.73,26.73,0,0,0,33.64,33a26.4,26.4,0,0,0-13.5,49.13A28.52,28.52,0,0,1,11.43,61.64Z"/><path class="cls-1" d="M79.23,13.45A28.6,28.6,0,0,1,113.9,28.27a25.33,25.33,0,0,0-.58-2.63,26.4,26.4,0,0,0-50.89,2.47A28.54,28.54,0,0,1,79.23,13.45Z"/><path class="cls-1" d="M155.46,45.12a28.6,28.6,0,0,1-6.57,37.13,24.46,24.46,0,0,0,2.43-1.16,26.4,26.4,0,0,0-13.95-49A28.49,28.49,0,0,1,155.46,45.12Z"/></svg>