<svg id="Calque_1" data-name="Calque 1" xmlns="http://www.w3.org/2000/svg" viewBox="0 0 99.99 26.71"><defs><style>.cls-1{fill:#ff8000;}.cls-1,.cls-2,.cls-3{fill-rule:evenodd;}.cls-2,.cls-5{fill:#2b2b2b;}.cls-3{fill:#fb0;}.cls-4{fill:#828282;}</style></defs><polygon class="cls-1" points="44.05 12.79 38.44 0 11.73 0 17.34 12.79 44.05 12.79"/><polygon class="cls-2" points="99.99 4.11 12.03 4.11 12.03 22.6 91.87 22.6 99.99 4.11"/><polygon class="cls-3" points="26.71 26.71 0 26.71 11.73 0 38.44 0 26.71 26.71"/><polygon class="cls-4" points="43.49 16.36 41.25 15.23 39.01 16.34 39.38 13.86 37.64 12.06 40.11 11.66 41.28 9.44 42.43 11.67 44.89 12.1 43.13 13.88 43.49 16.36"/><polygon class="cls-4" points="54.51 16.36 52.28 15.23 50.03 16.34 50.41 13.86 48.66 12.06 51.13 11.66 52.3 9.44 53.45 11.67 55.92 12.1 54.16 13.88 54.51 16.36"/><polygon class="cls-4" points="65.54 16.36 63.3 15.23 61.05 16.34 61.43 13.86 59.69 12.06 62.16 11.66 63.33 9.44 64.47 11.67 66.94 12.1 65.18 13.88 65.54 16.36"/><polygon class="cls-4" points="76.56 16.36 74.32 15.23 72.08 16.34 72.46 13.86 70.71 12.06 73.18 11.66 74.35 9.44 75.5 11.67 77.97 12.1 76.2 13.88 76.56 16.36"/><polygon class="cls-4" points="87.59 16.36 85.35 15.23 83.1 16.34 83.48 13.86 81.73 12.06 84.21 11.66 85.37 9.44 86.52 11.67 88.99 12.1 87.23 13.88 87.59 16.36"/><path class="cls-5" d="M12.64,13.56h0c0-1.88,1.14-3.41,2.87-3.41s2.86,1.51,2.86,3.39v0c0,1.88-1.15,3.4-2.87,3.4S12.64,15.44,12.64,13.56Zm4.54,0h0c0-1.3-.67-2.36-1.68-2.36s-1.67,1-1.67,2.34v0c0,1.29.66,2.36,1.68,2.36S17.18,14.86,17.18,13.56Z" transform="translate(-0.45 -0.18)"/><path class="cls-5" d="M19.36,15.55h1.25v1.29H19.36Z" transform="translate(-0.45 -0.18)"/><path class="cls-5" d="M21.6,13.56h0c0-1.88,1.15-3.41,2.87-3.41s2.86,1.51,2.86,3.39v0c0,1.88-1.15,3.4-2.87,3.4S21.6,15.44,21.6,13.56Zm4.54,0h0c0-1.3-.67-2.36-1.68-2.36s-1.67,1-1.67,2.34v0c0,1.29.66,2.36,1.68,2.36S26.14,14.86,26.14,13.56Z" transform="translate(-0.45 -0.18)"/></svg>